<?xml version="1.0" encoding="utf-8"?>
<!-- Uploaded to: SVG Repo, www.svgrepo.com, Generator: SVG Repo Mixer Tools -->
<svg width="800px" height="800px" viewBox="-65.5 0 366.808 366.808" xmlns="http://www.w3.org/2000/svg"><defs><style>.a{fill:#ffffff;}.b{fill:#957f6e;}.c{fill:#211715;}.d{fill:#645d5c;}.e{fill:#79c6e0;}</style></defs><path class="a" d="M177.193,88.578a8.014,8.014,0,0,1,6.412-1.876,7.566,7.566,0,0,1,5.441,3.618,10.687,10.687,0,0,1,1.12,4.3,32.061,32.061,0,0,1-3.269,17,20.378,20.378,0,0,1-5.269,6.916,13.519,13.519,0,0,1-6.283,2.832s-.389.059-1.08.181c-.514,1.923-1.091,3.542-1.375,4.4-1.921,5.216-13.12,23.913-26.92,29.279a76.578,76.578,0,0,0,.979,7.847c.65,3.74.45,7.08,5.64,8.96.35.12,15.09,7.14,15.61,7.35,0,0-1.522,30.068-44.189,30.068-49.777,0-49.787-29.266-49.787-29.266,1-.341,17.436-8.029,17.78-8.153,5.2-1.876,4.992-5.217,5.647-8.955a70.483,70.483,0,0,0,1.064-8.905,47.579,47.579,0,0,1-14.788-12.211,54.512,54.512,0,0,1-10.392-20.286l-2.048-.312a13.516,13.516,0,0,1-6.282-2.832,20.368,20.368,0,0,1-5.27-6.916,32.061,32.061,0,0,1-3.269-17,10.687,10.687,0,0,1,1.12-4.3A7.57,7.57,0,0,1,63.226,86.7a8.016,8.016,0,0,1,6.413,1.876s-3.406-44.456,52.594-44.456C181.788,44.122,177.193,88.578,177.193,88.578Z"/><path class="b" d="M57.2,128.952c.043-1.167.133-2.265.259-3.3a24.267,24.267,0,0,1,4.163-11.105,17.9,17.9,0,0,0,3.583,3.987,12.922,12.922,0,0,0,8.277,2.956,54.6,54.6,0,0,0,10.445,20.474,53.263,53.263,0,0,0,8.555,8.282c-.966,5.264-8.188,10.351-17.109,11.707-7.676,1.168-14.929-.545-19.644-3.435a6.525,6.525,0,0,1-2.167-1.9,1.931,1.931,0,0,1-.339-.947c-.005-.137.029-.678.2-.735,4.227-1.435,5.381-5.8,5.176-10.23-.221-4.448-1.341-9.006-1.42-13.454Q57.156,130.06,57.2,128.952Z"/><path class="b" d="M185.649,53.209c-.2-1.182-.41-2.277-.611-3.261C179.464,22.62,151.939.926,123.073,2.511,94.207.926,66.682,22.62,61.109,49.948c-1.51,7.371-1.33,19.982.043,25.866l2.764,10.825a7.957,7.957,0,0,1,5.723,1.939C81.047,80.665,100.4,66.917,110.418,58.3c-.824,5.115-3.753,13.814-.064,12.92,15.4-3.567,30.166-10.76,39.092-21.981,1.881,6.625,4.99,15.576,7.275,19.488,3.232,5.535,12.6,17.989,20.472,19.85a8.014,8.014,0,0,1,6.412-1.876,7.843,7.843,0,0,1,1,.218C188.616,77.63,187.264,62.628,185.649,53.209Z"/><path class="c" d="M96.269,154.971a69.665,69.665,0,0,1-.854,7.01c-.25,1.466-.388,2.973-.776,4.411A3.884,3.884,0,0,1,92.83,169a19.525,19.525,0,0,1-2.515,1.179c-4.109,1.867-8.189,3.8-12.289,5.685-1.083.5-2.165,1-3.251,1.486-.374.168-.749.333-1.123.5-.61.273.5-.175-.067.026a2.461,2.461,0,0,0-1.676,2.952,2.42,2.42,0,0,0,2.952,1.676c1.621-.579,3.187-1.394,4.75-2.111q3.814-1.75,7.619-3.521,2.754-1.276,5.508-2.549c.025-.012.444-.187.442-.2,0,.015-1.237.507-.149.08.314-.123.635-.258.941-.4a9.984,9.984,0,0,0,1.418-.756,8.975,8.975,0,0,0,3.5-4.276,24.265,24.265,0,0,0,1.069-5.057c.488-2.9.906-5.81,1.105-8.748a2.4,2.4,0,1,0-4.8,0Z"/><path class="c" d="M143.589,155.507c.192,2.451.5,4.895.9,7.321.255,1.546.416,3.136.8,4.657a9.428,9.428,0,0,0,2.191,4.151,9.217,9.217,0,0,0,2.094,1.639,10.869,10.869,0,0,0,1.089.548c.3.135.616.265.925.388,1,.394-.128-.066-.137-.074a5.768,5.768,0,0,0,1.417.657q1.37.642,2.736,1.289l6.957,3.293c1.662.786,3.311,1.613,5.007,2.325a2.416,2.416,0,0,0,2.953-1.676,2.463,2.463,0,0,0-1.677-2.953c1.22.512-.3-.159-.591-.3q-1.244-.584-2.484-1.172l-6.508-3.08c-1.626-.77-3.25-1.546-4.884-2.3-.692-.32-1.419-.568-2.09-.929a5.045,5.045,0,0,1-1.413-1.051,1.229,1.229,0,0,1-.326-.433c-.086-.142-.166-.286-.243-.433-.181-.342-.021,0-.1-.217a22.6,22.6,0,0,1-.866-4.312c-.394-2.443-.75-4.871-.943-7.34a2.46,2.46,0,0,0-2.4-2.4,2.419,2.419,0,0,0-2.4,2.4Z"/><path class="c" d="M63.436,75.41a49.324,49.324,0,0,1-.967-9.626,86.784,86.784,0,0,1,.4-11.581,50.131,50.131,0,0,1,6.852-19.9,60.967,60.967,0,0,1,33.842-26.88,55.26,55.26,0,0,1,10.873-2.3,114.538,114.538,0,0,1,11.527-.29A55.96,55.96,0,0,1,147.6,9.249a60.817,60.817,0,0,1,31.28,29.689,64.142,64.142,0,0,1,5.162,19.6c.923,7.412,1.435,15.271-.155,22.627a28.825,28.825,0,0,1-1.552,5.024,2.413,2.413,0,0,0,1.676,2.952,2.461,2.461,0,0,0,2.952-1.676c3.069-7.352,3-15.981,2.4-23.79-.56-7.249-1.571-14.719-4.027-21.592A64.538,64.538,0,0,0,154.6,7.275,63.1,63.1,0,0,0,131.529.3a110.969,110.969,0,0,0-11.89-.271,59.681,59.681,0,0,0-12.011,1.353,65.838,65.838,0,0,0-38.978,25.8,58.086,58.086,0,0,0-9.673,21.27,73.6,73.6,0,0,0-.925,23.358,42.174,42.174,0,0,0,.755,4.873c.684,3.011,5.313,1.737,4.629-1.276Z"/><path class="c" d="M147.36,50.682c1.116,3.814,2.354,7.6,3.762,11.313a50.855,50.855,0,0,0,3.972,8.687,64.565,64.565,0,0,0,12.271,14.812c2.668,2.328,5.7,4.526,9.19,5.4,3,.749,4.276-3.878,1.276-4.629-5.344-1.337-9.943-6.585-13.429-10.813a50.176,50.176,0,0,1-8.3-13.822c-1.559-4.006-2.9-8.1-4.11-12.223-.866-2.959-5.5-1.7-4.629,1.276Z"/><path class="c" d="M147.9,47.347a55.391,55.391,0,0,1-18.973,14.818,80.569,80.569,0,0,1-11.678,4.681q-3.136,1-6.336,1.775c-.263.064-.54.115-.8.192-.392.116-.452-.081-.127.067-.149-.068-.317-.191.178.049a2.217,2.217,0,0,1,.6.352.609.609,0,0,1,.231.337c0-.071-.044-.457-.046-.132,0,.366-.01-.228-.011-.3-.023-3.3,1.223-6.812,1.794-10.249a2.422,2.422,0,0,0-4.011-2.335c-10.056,8.627-20.976,16.3-31.783,23.94q-4.242,3-8.511,5.962a2.464,2.464,0,0,0-.861,3.284,2.422,2.422,0,0,0,3.284.861c11.281-7.828,22.488-15.792,33.33-24.221,2.688-2.089,5.351-4.215,7.935-6.432L108.1,57.663c-.609,3.665-1.887,7.325-1.965,11.063a4.962,4.962,0,0,0,1.575,4.225c1.749,1.336,3.974.44,5.875-.054a81.872,81.872,0,0,0,26.266-11.605A53.616,53.616,0,0,0,151.3,50.741a2.476,2.476,0,0,0,0-3.394,2.417,2.417,0,0,0-3.394,0Z"/><path class="c" d="M58.493,114.994c-3.195,5.59-4.13,12.21-3.595,18.568.294,3.5,1.012,6.949,1.254,10.454.158,2.3.158,5-1.235,6.978a4.836,4.836,0,0,1-2.137,1.629,3.272,3.272,0,0,0-1.819,4.021c.731,2.866,4.2,4.471,6.672,5.527A33.817,33.817,0,0,0,76.442,164.2c6.347-1.058,13.021-4.092,16.752-9.533,1.751-2.554-2.407-4.958-4.145-2.423-3.437,5.013-10.649,7.23-16.418,7.609a29.757,29.757,0,0,1-10.285-1.064,22.335,22.335,0,0,1-4.227-1.672,13.827,13.827,0,0,1-1.785-1.061c-.185-.137-.422-.479-.633-.565-.25-.1.016-.109-.071.2l-.617,1.059.1-.119-1.059.617a10.029,10.029,0,0,0,6.408-7.06c.968-3.6.44-7.356-.058-10.987-1.015-7.4-1.623-15.044,2.231-21.787,1.536-2.686-2.61-5.107-4.144-2.423Z"/><path class="c" d="M178.89,90.275a5.5,5.5,0,0,1,7.9.946,9.2,9.2,0,0,1,1.064,4.743,28.629,28.629,0,0,1-.341,6.05c-1.208,7.068-4.932,15.686-12.805,17.038a2.421,2.421,0,0,0-1.676,2.953,2.455,2.455,0,0,0,2.952,1.676c8.156-1.4,13-9.1,15.229-16.459a33.883,33.883,0,0,0,1.4-11.929c-.256-3.953-1.452-7.671-5.1-9.728A10.52,10.52,0,0,0,175.5,86.881a2.421,2.421,0,0,0,0,3.394,2.448,2.448,0,0,0,3.394,0Z"/><path class="c" d="M172.863,115.4a26.961,26.961,0,0,1-1.273,6.786c-.255.856-.536,1.7-.82,2.549-.077.229-.15.46-.235.687-.066.178-.364.844-.055.154a53.833,53.833,0,0,1-3.576,6.552,63.824,63.824,0,0,1-14.249,16.434,27.143,27.143,0,0,1-10.563,5.346c-3.01.692-1.736,5.321,1.276,4.629,8.03-1.846,14.752-7.639,20.044-13.7a69.149,69.149,0,0,0,11.03-16.429,35.055,35.055,0,0,0,3.221-13.009c.1-3.089-4.7-3.086-4.8,0Z"/><path class="c" d="M71.336,86.881a10.484,10.484,0,0,0-10.6-1.977c-3.926,1.548-5.889,4.851-6.387,8.915a32.882,32.882,0,0,0,5.755,22.731,17.194,17.194,0,0,0,10.741,7.131,2.472,2.472,0,0,0,2.953-1.676,2.421,2.421,0,0,0-1.677-2.953c-7.872-1.352-11.6-9.97-12.8-17.038a28.554,28.554,0,0,1-.349-5.827c.059-1.647.132-3.544,1.072-4.966a5.5,5.5,0,0,1,7.9-.946,2.462,2.462,0,0,0,3.395,0,2.421,2.421,0,0,0,0-3.394Z"/><path class="c" d="M69.5,114.627c2.917,16.833,12.04,33.306,27.635,41.43a37.46,37.46,0,0,0,13.535,4.049,2.417,2.417,0,0,0,2.4-2.4,2.454,2.454,0,0,0-2.4-2.4c-16.077-1.667-28.6-16.086-33.653-30.57a71.753,71.753,0,0,1-2.889-11.385,2.42,2.42,0,0,0-2.952-1.676,2.454,2.454,0,0,0-1.676,2.952Z"/><path class="a" d="M76.351,179.027c-12.887,4.826-27.317,10.7-35.714,16.85-2.029,1.487-5.745,5.746-8.315,10.6a42.932,42.932,0,0,0-4.809,8.909C22.887,226.08,11.1,258.2,5.445,272.849c-5.37,13.918-3.407,27.693,4.071,37.3s28.946,16.447,39.06,19.909c12.548,4.3,23.561,7.468,34.732,10.232,26.3-1.966,45.507-3.4,45.507-3.4,6.122-.456,46.469-4.741,66.111-9.088,8.519-1.886,25.255-6.195,32.517-12.249,7.108-5.927,6.876-19.856,4.334-34.435-2.676-15.349-11.864-56.832-14.337-65.661-1.614-5.764-4.815-12.165-8.772-15.471a7.966,7.966,0,0,0-1.038-.823c-2.68-3-5.926-4-9.17-5.769-13.876-7.546-25.926-13.841-41.68-20.389a39.974,39.974,0,0,0-8.2-11.132,80.686,80.686,0,0,1-23.288,16.23c-.482.219-1.02.486-1.175.992h-4.178c-.156-.506-.693-.773-1.175-.992a80.686,80.686,0,0,1-23.288-16.23,41.886,41.886,0,0,0-9.368,13.557C83.055,176.549,79.757,177.751,76.351,179.027Z"/><path class="d" d="M193.863,358.612H48.688l.124-.7.3-1.682c.361-2.263,6.736-42.31,8.571-53.969-.2-6.144-1.947-39.747-2.08-43.4L50.635,233.28c-.8-8.345-5.518-32.961-7.039-39.408,11.539-7.291,30.562-14.061,44.015-18.985.392.748.7,1.326.7,1.326,1.6,4.591,17.563,25.281,24.216,33.264,2.083,2.256,5.489,6.644,8.072,10.174l1-1.043c4.99-5.189,29.516-38.691,32.177-43.214l1.717-2.921.921.382c15.935,6.605,28.064,12.938,42.048,20.543,1.8.978,3.6,1.723,5.3,2.7l-.01.068L200.669,217.1c-3.048,24.007-7.6,53.706-12.662,87.931-.69,4.666,2.594,29.4,5.565,51.293l.334,2.285"/><path class="c" d="M201.436,195.531c-2.289,15.541-4.361,31.1-6.575,46.655-1.995,14.02-4.087,28.027-6.172,42.034q-.883,5.934-1.765,11.868c-.472,3.171-1.171,6.393-1.381,9.593a69.916,69.916,0,0,0,.7,11.442c1.422,14.071,3.308,28.128,5.353,42.12a2.415,2.415,0,0,0,2.952,1.677,2.463,2.463,0,0,0,1.676-2.953q-2.7-18.487-4.781-37.078c-.5-4.488-1.044-9.016-1.12-13.536-.009-.558,0-1.114.024-1.672.038-1.044-.137.72.051-.51.176-1.144.339-2.29.509-3.435q.857-5.772,1.715-11.542c2.118-14.232,4.25-28.463,6.3-42.706q1.365-9.5,2.659-19.015.6-4.466,1.183-8.934c.09-.7.177-1.4.269-2.1-.07.533-.045.314-.028.2.05-.349.1-.7.154-1.047l2.913-19.785a2.478,2.478,0,0,0-1.676-2.952,2.418,2.418,0,0,0-2.952,1.676Z"/><path class="c" d="M33.542,209.413a36.1,36.1,0,0,1,7.231-10.47c.255-.252.515-.5.784-.735.119-.1.239-.207.361-.308.314-.259-.35.258.053-.039.757-.558,1.54-1.082,2.329-1.592,1.585-1.024,3.218-1.974,4.875-2.877a198.083,198.083,0,0,1,24.13-10.656c4.549-1.74,9.124-3.408,13.7-5.079a2.464,2.464,0,0,0,1.676-2.953,2.419,2.419,0,0,0-2.952-1.676c-8.677,3.17-17.352,6.35-25.852,9.977-4.121,1.759-8.2,3.623-12.164,5.727A48.445,48.445,0,0,0,38.07,194.9a37.776,37.776,0,0,0-8.672,12.1,2.47,2.47,0,0,0,.861,3.284,2.419,2.419,0,0,0,3.283-.861Z"/><path class="c" d="M55.522,300.628q-1.851,11.8-3.737,23.6-2.089,13.152-4.183,26.3c-.358,2.248-.706,4.5-1.1,6.739a2.468,2.468,0,0,0,1.676,2.952,2.421,2.421,0,0,0,2.953-1.676c.987-5.566,1.808-11.164,2.7-16.746q2.279-14.329,4.552-28.658.891-5.62,1.776-11.24a2.476,2.476,0,0,0-1.676-2.952,2.419,2.419,0,0,0-2.953,1.676Z"/><path class="c" d="M41.272,194.445c2.452,10.431,4.3,21.068,5.975,31.647q.334,2.107.634,4.22l.063.458c-.033-.242-.024-.182,0,.024.036.278.072.556.106.834q.1.825.183,1.652a2.467,2.467,0,0,0,2.4,2.4,2.417,2.417,0,0,0,2.4-2.4c-.513-5.229-1.45-10.428-2.356-15.6q-1.571-8.96-3.366-17.877c-.447-2.216-.9-4.433-1.413-6.634-.706-3.006-5.336-1.734-4.628,1.276Z"/><path class="c" d="M85.994,176.851a31.632,31.632,0,0,0,3.869,6.741c2.26,3.346,4.649,6.6,7.067,9.838,4.758,6.363,9.58,12.734,14.785,18.741,2.785,3.215,5.352,6.637,7.825,10.095.468.654.932,1.311,1.382,1.978a4.921,4.921,0,0,0,.536.81c.312.295-.046-.146-.064-.251.012.069-.069-.82-.07-.517,0,.327.057.667.077.994.187,3.146.219,6.3.281,9.454.238,12.217.334,24.438.433,36.657q.169,21.1.262,42.2.063,13.234.1,26.468c0,.373,0,.746,0,1.118,0,3.089,4.8,3.094,4.8,0,0-7.769-.046-15.538-.081-23.307q-.093-20.736-.243-41.473c-.1-12.834-.2-25.669-.415-38.5-.063-3.738-.119-7.478-.271-11.213-.033-.82-.061-1.645-.152-2.462-.173-1.546-1.308-2.8-2.185-4.034-1.233-1.736-2.5-3.444-3.8-5.136-4.734-6.193-9.882-12.057-14.646-18.234-4.781-6.2-9.728-12.449-13.752-19.179-.284-.474-.562-.954-.816-1.445-.093-.178-.172-.365-.268-.541-.242-.437.2.572-.029-.078A2.463,2.463,0,0,0,87.67,173.9a2.421,2.421,0,0,0-1.676,2.952Z"/><path class="c" d="M155.774,175.17c8.483,3.522,16.81,7.4,24.994,11.57,3.958,2.015,7.884,4.09,11.795,6.194,1.947,1.048,3.873,2.148,5.849,3.141a34.748,34.748,0,0,1,5.824,3.186,2.481,2.481,0,0,0,3.394,0,2.415,2.415,0,0,0,0-3.394,33.79,33.79,0,0,0-6.024-3.555c-2.113-1.035-4.163-2.2-6.234-3.314-4.039-2.176-8.093-4.322-12.181-6.4q-12.836-6.534-26.141-12.054a2.415,2.415,0,0,0-2.952,1.676,2.463,2.463,0,0,0,1.676,2.953Z"/><path class="a" d="M105.527,194.045c-7.637-7.284-12.645-12.211-18.169-21.2a39.834,39.834,0,0,1,8.116-10.965,80.686,80.686,0,0,0,23.288,16.23c.482.219,1.019.486,1.175.992a1.869,1.869,0,0,1-.269,1.315C119.366,181.039,108.706,191.022,105.527,194.045Z"/><path class="a" d="M140.2,195.5a146.035,146.035,0,0,0,16.5-22.659,39.854,39.854,0,0,0-8.116-10.965,80.686,80.686,0,0,1-23.288,16.23c-.482.219-1.02.486-1.175.992a1.864,1.864,0,0,0,.269,1.315C124.686,181.039,136.456,192.333,140.2,195.5Z"/><path class="c" d="M151.7,174.182c-3.1,5.232-6.979,10.1-10.554,15.007-5.05,6.932-10.566,14.386-15.558,20.8a88.832,88.832,0,0,1-5.689,6.926c-2.134,2.233,1.255,5.633,3.394,3.394,1.756-1.837,3.307-3.886,4.874-5.883,2.613-3.328,5.173-6.7,7.714-10.083q7.868-10.477,15.474-21.151c1.53-2.159,3.14-4.3,4.49-6.583,1.578-2.664-2.57-5.081-4.145-2.423Z"/><path class="c" d="M107.224,192.347c-3.338-3.184-6.683-6.375-9.754-9.822a77.439,77.439,0,0,1-8.04-10.894v2.423a38.521,38.521,0,0,1,7.741-10.48H93.777a82.547,82.547,0,0,0,11.941,9.889q3.04,2.084,6.259,3.89,1.651.927,3.349,1.77.738.366,1.485.715.441.207.886.411a2.31,2.31,0,0,1,.288.149c.232.133.191.1-.12-.088l-.328-1.211c.046.356.3-.2.285-.188-.113.056-.242.265-.329.358-.41.435-.839.853-1.265,1.272-1.367,1.346-2.755,2.669-4.143,3.992-2.744,2.613-5.509,5.205-8.255,7.814-2.244,2.133,1.154,5.523,3.394,3.395,4.087-3.884,8.228-7.713,12.251-11.663,1.812-1.778,4.355-4.364,2.023-6.954a7.705,7.705,0,0,0-2.635-1.606q-1.5-.714-2.975-1.5-3.228-1.717-6.291-3.727A76.6,76.6,0,0,1,97.171,160.18a2.445,2.445,0,0,0-3.394,0,40.856,40.856,0,0,0-7.289,9.269,12.619,12.619,0,0,0-1.444,2.755c-.351,1.273.531,2.332,1.171,3.332q1.479,2.31,3.109,4.521a124.184,124.184,0,0,0,14.506,15.685C106.065,197.874,109.464,194.485,107.224,192.347Z"/><path class="c" d="M48.889,361.012H193.863c3.089,0,3.094-4.8,0-4.8H48.889c-3.089,0-3.094,4.8,0,4.8Z"/><path class="c" d="M141.893,197.2a145.85,145.85,0,0,0,13.173-17.284q1.575-2.413,3.086-4.865c.718-1.16,1.251-2.074.614-3.418-.384-.811-.854-1.592-1.309-2.363a40.781,40.781,0,0,0-7.182-9.088,2.441,2.441,0,0,0-3.394,0,76.243,76.243,0,0,1-11.7,9.63q-3.139,2.1-6.463,3.911-1.562.847-3.162,1.621a9.142,9.142,0,0,0-3.007,1.783c-2.4,2.629.32,5.286,2.133,7.089,2.185,2.174,4.414,4.305,6.654,6.424,2.349,2.222,4.695,4.464,7.159,6.56a2.462,2.462,0,0,0,3.394,0,2.42,2.42,0,0,0,0-3.394c-3.213-2.733-6.254-5.683-9.3-8.6-1.515-1.45-3.025-2.907-4.512-4.386-.474-.472-.948-.943-1.408-1.428a5.428,5.428,0,0,0-.411-.445c-.26-.215.2.555.254.152l-.328,1.211c-.108.22-.405.2.022.008.283-.128.565-.263.847-.394q.746-.345,1.484-.71,1.7-.835,3.349-1.757,3.314-1.845,6.445-3.994a82.547,82.547,0,0,0,11.941-9.889h-3.394a38.518,38.518,0,0,1,7.74,10.48v-2.423A155.858,155.858,0,0,1,138.5,193.8C136.452,196.105,139.835,199.512,141.893,197.2Z"/><path class="c" d="M53.2,258.863c.468,12.652,1.27,25.3,1.851,37.943.1,2.077.241,4.162.247,6.242.009,3.088,4.809,3.094,4.8,0-.015-5.013-.423-10.049-.668-15.054q-.547-11.187-1.111-22.372c-.111-2.252-.236-4.5-.319-6.759-.114-3.08-4.915-3.095-4.8,0Z"/><path class="a" d="M65.421,285.069c-12.445-18.018-26.844-37.61-36.919-52.244,3.02-2.079,11.261-8.349,14.873-10.835"/><path class="c" d="M67.493,283.858c-9.709-14.051-19.752-27.866-29.617-41.807q-3.679-5.2-7.3-10.437l-.861,3.284c5.045-3.489,9.825-7.349,14.873-10.836a2.462,2.462,0,0,0,.861-3.283,2.421,2.421,0,0,0-3.284-.861c-5.047,3.486-9.828,7.346-14.873,10.835a2.434,2.434,0,0,0-.861,3.284c9.283,13.475,18.941,26.688,28.386,40.049q4.3,6.077,8.533,12.194a2.462,2.462,0,0,0,3.283.862,2.421,2.421,0,0,0,.861-3.284Z"/><path class="e" d="M94.193,364.407C78.8,321.546,55.123,256.142,39.344,212.2,69.81,201.26,128.9,180.076,149.227,172.776c0,0,.008,0,.01,0,20.045,55.514,37.513,105.253,54.257,151.877-21.962,7.887-87.564,31.946-109.3,39.751Z"/><path class="c" d="M96.508,363.769q-10.386-28.917-20.827-57.815-11.316-31.363-22.629-62.727-5.7-15.829-11.394-31.663l-1.676,2.952q22.347-8.025,44.7-16.04,23.42-8.4,46.841-16.8,9.171-3.29,18.343-6.583l-1.85-.242.01,0-1.1-1.434q11.274,31.221,22.4,62.5,10.36,29.081,20.7,58.169Q195.583,309.7,201.18,325.3l1.676-2.952c-13.511,4.853-26.992,9.787-40.479,14.706q-24.57,8.961-49.141,17.917-9.834,3.577-19.677,7.128l1.85.242,0,0a2.466,2.466,0,0,0-3.284.861,2.421,2.421,0,0,0,.861,3.284c1.52.729,3.234-.252,4.7-.782q2.032-.732,4.063-1.468,4.715-1.707,9.426-3.42,11.686-4.248,23.368-8.512,24.767-9.032,49.533-18.059,10.024-3.648,20.058-7.267a2.431,2.431,0,0,0,1.676-2.952q-10.525-29.31-20.931-58.662-11.136-31.312-22.32-62.608-2.983-8.329-5.978-16.655-1.5-4.172-3-8.342l-1.347-3.736c-.552-1.527-.974-3.641-3-3.641a12.249,12.249,0,0,0-3.618,1.156l-3.63,1.3L133.43,175.9q-22.47,8.063-44.94,16.121-22.617,8.113-45.232,16.23l-4.552,1.635a2.431,2.431,0,0,0-1.676,2.952q10.523,29.3,21.1,58.586,11.277,31.255,22.551,62.512,5.606,15.551,11.2,31.107a2.462,2.462,0,0,0,2.952,1.677A2.422,2.422,0,0,0,96.508,363.769Z"/><path class="a" d="M83.5,283.969c-2.272.541-4.283,1.6-4.687,3.585a7.024,7.024,0,0,0,.028,3.348c16.425,5.289,33.034,10.407,45.378,14.385-.3-2.273-.565-4.295-.763-5.894l-1.18-.09c-2.109-.583-4.173-.429-5.949-1.646a20.327,20.327,0,0,1-4.584-4.846,21.835,21.835,0,0,0-10.132-7.94c-3.585-1.239-8.137-1.15-11.946-1.375A22.887,22.887,0,0,0,83.5,283.969Z"/><path class="a" d="M181.24,312.184h0c-11.852-33-30.085-83.367-42.236-117.2"/><path class="c" d="M182.451,310.112l0,0,1.1,1.435q-7.992-22.255-16.028-44.495-8.709-24.14-17.417-48.278-4.4-12.213-8.791-24.429a2.462,2.462,0,0,0-2.952-1.677,2.422,2.422,0,0,0-1.676,2.953q8.2,22.842,16.451,45.668,8.8,24.4,17.6,48.8,2.237,6.2,4.47,12.411,1.065,2.96,2.129,5.92.484,1.347.968,2.694c.367,1.022.647,2.628,1.719,3.143a2.466,2.466,0,0,0,3.284-.861,2.421,2.421,0,0,0-.861-3.284Z"/><path class="a" d="M196.282,284.909c-9.587,2.2-62.967,9.824-73.177,11.322.445,5.049,5.107,38.282,5.71,40.663,6.122-.456,46.469-4.741,66.111-9.088,8.519-1.886,25.255-6.195,32.517-12.249,7.108-5.927,6.876-19.856,4.334-34.435Z"/><path class="c" d="M122.917,296.988c-1.347-.343-2.748-.433-4.086-.807a6.877,6.877,0,0,1-3-2.135c-1.771-1.868-3.116-4.081-4.93-5.917a22.747,22.747,0,0,0-6.586-4.735,24.034,24.034,0,0,0-7.951-1.937c-6.6-.615-21.072-1.988-20.1,8.493.47,5.08,4.859,6.942,9.082,8.452a2.422,2.422,0,0,0,2.952-1.676,2.448,2.448,0,0,0-1.676-2.952,19.366,19.366,0,0,1-3.711-1.55,3.247,3.247,0,0,1-1.86-2.428,5.434,5.434,0,0,1,.181-2,1.417,1.417,0,0,1,.294-.367c.034-.033.332-.3.068-.088a4.264,4.264,0,0,1,.527-.335,11.226,11.226,0,0,1,3.966-1.05,30.918,30.918,0,0,1,4.379-.023c2.313.114,4.645.127,6.944.428a17.726,17.726,0,0,1,11.17,6.313c1.714,1.961,3.067,4.211,5.067,5.917a10.3,10.3,0,0,0,3.908,2.213c1.336.38,2.739.465,4.086.808,2.994.763,4.272-3.865,1.276-4.629Z"/><path class="c" d="M195.644,282.6c-8.572,1.956-17.4,3.041-26.081,4.371q-17.528,2.683-35.08,5.206-6.007.873-12.016,1.745a2.391,2.391,0,0,0-1.762,2.314c.471,5.247,1.3,10.478,2.011,15.695.918,6.7,1.856,13.391,2.869,20.074.278,1.835.472,3.727.916,5.532a2.417,2.417,0,0,0,2.314,1.762c12.8-.965,25.594-2.7,38.308-4.439,15.865-2.169,31.919-4.546,47.062-9.951a60.207,60.207,0,0,0,11.949-5.464,18.3,18.3,0,0,0,7.6-8.931,36.065,36.065,0,0,0,2.065-13.548,99.983,99.983,0,0,0-1.707-16.477c-2.491-14.316-5.716-28.527-8.891-42.7-1.424-6.357-2.859-12.713-4.428-19.036-1.832-7.387-4.461-15.324-10.407-20.452a24.857,24.857,0,0,0-4.048-2.819c-2.7-1.514-5.12,2.631-2.423,4.144.651.365,1.277.776,1.895,1.192.348.234.7.466,1.033.725s-.338-.289.061.063c.2.177.4.356.6.537a21.429,21.429,0,0,1,3.98,5.174,41.4,41.4,0,0,1,4.092,10.387c1.425,5.472,2.669,10.994,3.922,16.508,3.283,14.448,6.484,28.932,9.242,43.491,1.587,8.374,3.172,17.25,1.9,25.773-.534,3.579-1.646,7.33-4.241,9.825-2.455,2.361-6.159,4.077-9.446,5.442-14.467,6-30.288,8.51-45.7,10.735-13.459,1.943-26.984,3.617-40.526,4.862-.63.058-1.261.115-1.892.162l2.314,1.762c-.353-1.439-.518-2.942-.743-4.4-.456-2.959-.887-5.922-1.313-8.885q-.759-5.28-1.487-10.563-.355-2.574-.7-5.149c-.11-.814.031.232-.032-.241-.028-.2-.056-.411-.083-.616l-.144-1.084q-.159-1.191-.314-2.382c-.289-2.229-.6-4.461-.805-6.7l-1.762,2.315c8.841-1.3,17.686-2.565,26.525-3.869,11.661-1.719,23.323-3.445,34.956-5.347,3.9-.638,7.838-1.226,11.7-2.107,3.011-.687,1.736-5.316-1.276-4.628Z"/><path class="a" d="M169.719,327.268c-1.591-1.346-6.139-4.894-10.4-8.182a15.78,15.78,0,0,1,2.213-1c3.652-.8,8.818.9,10.055-5.061.824-3.964-5.635-7.075-8.451-8.094-3.625-1.31-7.814-3.208-11.635-3.488a22.051,22.051,0,0,0-12.568,3.328,20.555,20.555,0,0,1-6.187,2.669,48.686,48.686,0,0,1-9.367.169c-1.953,8.81-4.821,19.357-7.419,29.456,1.231,2.382,2.288,5.487,3.275,7.657,2.282,5.015,5.115,7.548,9.428,10.957a36.239,36.239,0,0,0,7.883,4.761c2.921.987,7.031-2.926,8.9-4.125.461-.3,3.975,1.441,6.817-.394,1.145-.739,1.976-3.88,3.59-5.243,1.808-1.527,3.672-1.168,5.852-1.75,2.153-.575,4.126-5.441,3.234-7.195C174.082,346.021,176.116,332.677,169.719,327.268Z"/><path class="c" d="M122.526,309.918a34.234,34.234,0,0,0,11.079-.213c2.8-.6,5.185-2.183,7.678-3.5a20.185,20.185,0,0,1,7.336-2.338c5.043-.491,10.12,1.806,14.692,3.684-.3-.122.471.211.606.275.434.2.864.419,1.286.647a15.666,15.666,0,0,1,2.315,1.466,7.344,7.344,0,0,1,1.352,1.384c.409.621.489.826.324,1.42a4.616,4.616,0,0,1-1.05,2.1,3.446,3.446,0,0,1-1.764.832,9.721,9.721,0,0,1-2.129.144c-.906-.012-1.811-.084-2.716-.14-3.084-.193-3.073,4.608,0,4.8,4.008.25,8.306.288,10.9-3.325a7.775,7.775,0,0,0,1.3-6.759,10.837,10.837,0,0,0-4.54-5.13,26.5,26.5,0,0,0-5.414-2.655,74.752,74.752,0,0,0-8.715-3.009c-6.484-1.551-12.473.359-18.116,3.539a14.54,14.54,0,0,1-7.309,2.168,43.975,43.975,0,0,1-7.111-.195,2.412,2.412,0,0,0-2.4,2.4,2.461,2.461,0,0,0,2.4,2.4Z"/><path class="c" d="M151.164,315.831c4.98,3.786,9.948,7.595,14.841,11.494.807.644,1.647,1.271,2.4,1.981a8.834,8.834,0,0,1,1.876,2.686,9.408,9.408,0,0,1,.751,3.42c.009.313.006.627-.012.939-.006.112-.124.964-.041.5-.051.29-.111.579-.189.863-.052.19-.28.841-.227.717.073-.171-.257.475-.341.62-.066.113-.144.224-.22.329.191-.267.115-.116-.055.04-.142.131-.746.593-.305.308a3.388,3.388,0,0,1-.323.2c-.063.03-.547.238-.235.123a6.359,6.359,0,0,0-.67.144c.527-.078-.4-.03-.548-.038-.39-.02.338.069-.067,0-.208-.037-.414-.084-.618-.138a7.627,7.627,0,0,1-1.025-.354,2.423,2.423,0,0,0-3.284,3.284c-.138-.319,0-.527-.109-.19.011-.034-.053.788,0,.394a6.559,6.559,0,0,1-.49,1.7A4.151,4.151,0,0,1,160.9,346.7c.234-.094.371-.1-.233.013-.392.071-.78.147-1.175.2a18,18,0,0,0-2.2.375,7.667,7.667,0,0,0-4.125,2.82,25.506,25.506,0,0,0-1.793,3.039c-.134.24-.318.481-.432.731-.2.44-.158.177-.064.083.394-.4-.149.093-.337.172a3.48,3.48,0,0,1-1.2.235,12.357,12.357,0,0,1-2.783-.376,3.775,3.775,0,0,0-3.245.9c-.9.665-1.777,1.352-2.713,1.961a8.771,8.771,0,0,1-2.733,1.324,1.533,1.533,0,0,1-.834-.1,12.463,12.463,0,0,1-1.4-.69,41.284,41.284,0,0,1-3.6-2.22c-1.086-.738-1.726-1.226-2.617-1.943-1.19-.959-2.362-1.941-3.455-3.011a21.9,21.9,0,0,1-4.652-6.708c-1.341-2.952-2.226-6.168-3.983-8.919a25.74,25.74,0,0,0-7.945-7.305c-2.6-1.686-5.008,2.468-2.423,4.145,2.614,1.7,5.234,3.7,6.748,6.479,1.554,2.86,2.441,6.025,3.893,8.934,2.7,5.4,7.493,9.467,12.443,12.763,2.173,1.447,4.954,3.468,7.685,3.384,2.876-.088,5.366-1.964,7.569-3.62.183-.137,1.16-.671,1.2-.874-.053.284-1.511.042-1.032.162.271.067.55.118.823.172a11.8,11.8,0,0,0,4.788.137,6.162,6.162,0,0,0,3.937-2.557c.73-1.067,1.16-2.323,1.925-3.366.946-1.289,2.551-1.3,4.023-1.527a6.155,6.155,0,0,0,4.072-2.122c1.971-2.353,3.262-5.93,1.984-8.874l-3.284,3.284c3.167,1.435,6.916,1.78,9.543-.924,2.181-2.245,2.819-5.648,2.461-8.665a13.454,13.454,0,0,0-4.529-8.82c-2.468-2.073-5.047-4.022-7.593-6q-5-3.877-10.027-7.71a2.413,2.413,0,0,0-3.283.861,2.458,2.458,0,0,0,.861,3.283Z"/><path class="a" d="M49.434,281.038c23.358,8.29,54.425,17.693,74.472,24.147-2.53,12.087-7.153,28.137-10.416,41.774-23.578-4.81-41.595-8.917-64.914-16.9-10.114-3.462-31.582-10.3-39.06-19.909Z"/><path class="c" d="M48.8,283.352c19.762,7.007,39.808,13.194,59.8,19.491q7.34,2.311,14.668,4.657l-1.676-2.953c-2.954,14.046-7.069,27.821-10.415,41.774l2.952-1.677c-18.664-3.809-37.228-8-55.4-13.761-7.187-2.277-14.366-4.671-21.43-7.309-6.747-2.519-13.513-5.35-19.539-9.339a26.249,26.249,0,0,1-6.633-5.907A31.3,31.3,0,0,1,5.9,297.4c-2.245-8.614-.722-17.183,2.411-25.349C13.319,259,18.149,245.874,23.152,232.82q1.716-4.476,3.468-8.937.741-1.878,1.5-3.749.333-.825.672-1.648c.1-.253.21-.507.316-.76.05-.122.1-.243.152-.364.179-.429-.1.227.015-.036a51.8,51.8,0,0,1,4.42-8.62,38.942,38.942,0,0,1,6.157-7.655q1.541-1.367,3.138-2.667a2.419,2.419,0,0,0,0-3.395,2.456,2.456,0,0,0-3.394,0c-1.138.932-2.263,1.882-3.358,2.863a25.806,25.806,0,0,0-3.3,3.8,55.427,55.427,0,0,0-5.677,8.564c-2.669,5.315-4.732,10.976-6.881,16.514C15.124,240.275,10.1,253.906,4.939,267.485a90.607,90.607,0,0,0-3.6,10.421A43.33,43.33,0,0,0,.157,292.1c.736,8.146,3.941,16.659,10.048,22.315,5.433,5.032,12.383,8.294,19.138,11.139,6.317,2.66,12.808,4.848,19.293,7.056a481.318,481.318,0,0,0,56.623,15.092q3.8.8,7.593,1.568a2.444,2.444,0,0,0,2.953-1.676c3.345-13.953,7.461-27.728,10.415-41.774a2.462,2.462,0,0,0-1.676-2.952c-19.351-6.227-38.8-12.138-58.1-18.545q-8.212-2.727-16.376-5.6A2.423,2.423,0,0,0,47.12,280.4a2.448,2.448,0,0,0,1.676,2.952Z"/><path class="c" d="M114.08,131.6a21.176,21.176,0,0,0,10.2,2.356c3.632-.023,7.329-.727,10.241-3a2.412,2.412,0,0,0,0-3.394,2.462,2.462,0,0,0-3.394,0c.711-.554.1-.086-.086.03-.207.133-.422.257-.64.371-.152.08-.9.393-.3.165-.293.111-.584.225-.883.321a15.179,15.179,0,0,1-5.266.7,15.783,15.783,0,0,1-5.025-.676c-.324-.1-.639-.213-.958-.322-.1-.036-.2-.09-.309-.12.591.173.172.076.015,0-.4-.186-.786-.381-1.173-.585a2.453,2.453,0,0,0-3.284.861,2.427,2.427,0,0,0,.861,3.284Z"/><path class="c" d="M123.2,107.386a48.749,48.749,0,0,1,1.143,5.23l-.086-.638a3.114,3.114,0,0,1,.02.722l.086-.638a1.753,1.753,0,0,1-.08.325l.242-.574a1.282,1.282,0,0,1-.114.209l.375-.486a1.093,1.093,0,0,1-.171.169l.486-.376a3.416,3.416,0,0,1-.414.22l.573-.242a2.986,2.986,0,0,1-.7.2l.638-.085a2.822,2.822,0,0,1-.656,0l.638.085c-.247-.034-.489-.094-.736-.128a2.657,2.657,0,0,0-1.85.242,2.4,2.4,0,0,0-.861,3.284,2.3,2.3,0,0,0,1.435,1.1c.537.072,1.059.21,1.605.234a5.077,5.077,0,0,0,2.334-.551,3.305,3.305,0,0,0,1.852-2.187,5.6,5.6,0,0,0-.025-2.389c-.285-1.685-.674-3.354-1.107-5.007a2.4,2.4,0,0,0-4.629,1.276Z"/><path class="c" d="M95.271,92.65c-.873,2.838-.3,9.367,5.073,9.923,7.107-.043,7.485-7.937,5.093-11.648C103.478,87.886,97.719,86.622,95.271,92.65Z"/><path class="c" d="M152.183,92.65c.873,2.838.3,9.367-5.073,9.923-7.107-.043-7.485-7.937-5.093-11.648C143.976,87.886,149.735,86.622,152.183,92.65Z"/></svg>