<svg width="25" height="25" viewBox="0 0 25 25" fill="none" xmlns="http://www.w3.org/2000/svg">
<g id="excel-document-svgrepo-com 1">
<path id="Vector" fill-rule="evenodd" clip-rule="evenodd" d="M3.55928 0.00244141C2.46475 0.00244141 1.57764 0.890332 1.57764 1.98447V23.0161C1.57764 24.111 2.46475 24.9981 3.55928 24.9981H21.4397C22.5339 24.9981 23.4218 24.111 23.4218 23.0161V7.93603L16.0382 0.00244141H3.55928Z" fill="#45B058"/>
<path id="Vector_2" d="M9.15205 21.0696C9.06768 21.0696 8.98994 21.0345 8.94111 20.9642L7.48486 19.0228L6.02197 20.9642C5.97275 21.0345 5.89541 21.0696 5.81104 21.0696C5.65635 21.0696 5.52979 20.9501 5.52979 20.7884C5.52979 20.7321 5.54346 20.6688 5.58604 20.6196L7.10557 18.6153L5.69189 16.7302C5.65674 16.681 5.63525 16.6247 5.63525 16.5685C5.63525 16.4349 5.74775 16.2872 5.91689 16.2872C6.00127 16.2872 6.08564 16.3294 6.14189 16.3997L7.48486 18.2075L8.82783 16.3927C8.87744 16.3224 8.95439 16.2872 9.03916 16.2872C9.18682 16.2872 9.32744 16.4067 9.32744 16.5685C9.32744 16.6247 9.31338 16.681 9.27783 16.7302L7.86416 18.6083L9.38408 20.6196C9.41924 20.6688 9.43291 20.7251 9.43291 20.7813C9.43291 20.936 9.30635 21.0696 9.15205 21.0696ZM13.054 21.0204H10.9231C10.6907 21.0204 10.5009 20.8306 10.5009 20.5985V16.5685C10.5009 16.4138 10.6274 16.2872 10.8032 16.2872C10.9579 16.2872 11.0849 16.4138 11.0849 16.5685V20.5001H13.054C13.1942 20.5001 13.3071 20.6126 13.3071 20.7532C13.3071 20.9079 13.1942 21.0204 13.054 21.0204ZM15.7813 21.1048C15.0853 21.1048 14.536 20.8728 14.1356 20.5208C14.0724 20.4646 14.0442 20.3872 14.0442 20.3099C14.0442 20.1692 14.1497 20.0146 14.3185 20.0146C14.3747 20.0146 14.438 20.0286 14.4876 20.0708C14.811 20.3591 15.261 20.5841 15.8028 20.5841C16.6399 20.5841 16.9067 20.1341 16.9067 19.7751C16.9067 18.5653 14.129 19.2337 14.129 17.5595C14.129 16.786 14.8181 16.2583 15.7396 16.2583C16.3442 16.2583 16.8649 16.4411 17.2446 16.7575C17.3079 16.8138 17.3435 16.8911 17.3435 16.9685C17.3435 17.1091 17.2235 17.2497 17.0688 17.2497C17.0122 17.2497 16.9489 17.2286 16.9001 17.1864C16.5552 16.9052 16.1267 16.7786 15.6974 16.7786C15.1349 16.7786 14.7337 17.081 14.7337 17.5243C14.7337 18.5794 17.5118 17.9743 17.5118 19.7259C17.5118 20.4087 17.0478 21.1048 15.7813 21.1048Z" fill="white"/>
<path id="Vector_3" fill-rule="evenodd" clip-rule="evenodd" d="M23.4192 7.95V8.34062H18.4188C18.4188 8.34062 15.9532 7.84844 16.0255 5.7207C16.0255 5.7207 16.1063 7.95 18.37 7.95H23.4192Z" fill="#349C42"/>
<path id="Vector_4" opacity="0.5" fill-rule="evenodd" clip-rule="evenodd" d="M16.0347 0V5.68789C16.0347 6.33477 16.4659 7.95 18.419 7.95H23.4194L16.0347 0Z" fill="white"/>
</g>
</svg>
